<svg xmlns="http://www.w3.org/2000/svg" width="32" height="32" viewBox="0 0 32 32">
  <g fill="#A8BCCD">
    <path d="M15.529,31.059 C6.966,31.059 0,24.093 0,15.529 C0,6.967 6.966,0 15.529,0 C24.092,0 31.058,6.967 31.058,15.529 C31.059,24.093 24.092,31.059 15.529,31.059 Z M15.529,1.775 C7.945,1.775 1.775,7.945 1.775,15.529 C1.775,23.114 7.945,29.284 15.529,29.284 C23.113,29.284 29.283,23.114 29.283,15.529 C29.284,7.945 23.114,1.775 15.529,1.775 Z"/>
    <path d="M20.292,21.179 C20.064,21.179 19.838,21.093 19.664,20.919 L14.902,16.157 C14.735,15.99 14.642,15.765 14.642,15.529 L14.642,5.454 C14.642,4.964 15.039,4.567 15.53,4.567 C16.02,4.567 16.417,4.963 16.417,5.454 L16.417,15.162 L20.919,19.664 C21.266,20.011 21.266,20.573 20.919,20.919 C20.745,21.093 20.518,21.179 20.292,21.179 Z"/>
  </g>
</svg>
