<svg xmlns="http://www.w3.org/2000/svg" width="579" height="578" viewBox="0 0 579 578">
  <path fill="#A8BCCD" d="M577.83,456.128 C579.055,465.513 576.195,473.673 569.262,480.608 L487.866,561.389 C484.194,565.469 479.401,568.94 473.485,571.793 C467.569,574.65 461.756,576.486 456.046,577.301 C455.638,577.301 454.411,577.406 452.37,577.61 C450.333,577.813 447.681,577.917 444.417,577.917 C436.663,577.917 424.116,576.591 406.776,573.938 C389.436,571.285 368.221,564.756 343.131,554.354 C318.035,543.95 289.578,528.342 257.755,507.536 C225.932,486.731 192.067,458.169 156.163,421.856 C127.603,393.704 103.939,366.776 85.171,341.073 C66.403,315.368 51.307,291.602 39.883,269.774 C28.458,247.946 19.89,228.158 14.178,210.41 C8.466,192.662 4.59,177.362 2.55,164.51 C0.51,151.658 -0.306,141.56 0.102,134.216 C0.51,126.872 0.714,122.792 0.714,121.976 C1.53,116.264 3.366,110.45 6.222,104.534 C9.078,98.618 12.546,93.824 16.626,90.152 L98.022,8.756 C103.734,3.044 110.262,0.188 117.606,0.188 C122.91,0.188 127.602,1.718 131.682,4.778 C135.762,7.838 139.23,11.612 142.086,16.1 L207.57,140.336 C211.242,146.864 212.262,154.004 210.63,161.756 C208.998,169.508 205.53,176.036 200.226,181.34 L170.238,211.328 C169.422,212.144 168.708,213.47 168.096,215.306 C167.484,217.142 167.178,218.672 167.178,219.896 C168.81,228.464 172.482,238.256 178.194,249.272 C183.09,259.064 190.638,270.998 200.838,285.074 C211.038,299.15 225.522,315.367 244.29,333.727 C262.65,352.497 278.97,367.081 293.25,377.487 C307.527,387.887 319.465,395.54 329.053,400.436 C338.641,405.332 345.985,408.29 351.084,409.307 L358.732,410.838 C359.548,410.838 360.877,410.531 362.711,409.92 C364.547,409.307 365.873,408.594 366.69,407.777 L401.573,372.281 C408.921,365.754 417.485,362.49 427.278,362.49 C434.216,362.49 439.721,363.713 443.801,366.162 L444.412,366.162 L562.527,435.93 C571.098,441.238 576.197,447.968 577.83,456.128 Z"/>
</svg>
