<svg xmlns="http://www.w3.org/2000/svg" width="474" height="474" viewBox="0 0 474 474">
  <g fill="#A8BCCD">
    <path d="M374.456 293.506C364.756 283.406 353.056 278.006 340.656 278.006 328.356 278.006 316.556 283.306 306.456 293.406L274.856 324.906C272.256 323.506 269.656 322.206 267.156 320.906 263.556 319.106 260.156 317.406 257.256 315.606 227.656 296.806 200.756 272.306 174.956 240.606 162.456 224.806 154.056 211.506 147.956 198.006 156.156 190.506 163.756 182.706 171.156 175.206 173.956 172.406 176.756 169.506 179.556 166.706 200.556 145.706 200.556 118.506 179.556 97.506L152.256 70.206C149.156 67.106 145.956 63.906 142.956 60.706 136.956 54.506 130.656 48.106 124.156 42.106 114.456 32.506 102.856 27.406 90.656 27.406 78.456 27.406 66.656 32.506 56.656 42.106 56.556 42.206 56.556 42.206 56.456 42.306L22.456 76.606C9.656 89.406 2.356 105.006.756 123.106-1.644 152.306 6.956 179.506 13.556 197.306 29.756 241.006 53.956 281.506 90.056 324.906 133.856 377.206 186.556 418.506 246.756 447.606 269.756 458.506 300.456 471.406 334.756 473.606 336.856 473.706 339.056 473.806 341.056 473.806 364.156 473.806 383.556 465.506 398.756 449.006 398.856 448.806 399.056 448.706 399.156 448.506 404.356 442.206 410.356 436.506 416.656 430.406 420.956 426.306 425.356 422.006 429.656 417.506 439.556 407.206 444.756 395.206 444.756 382.906 444.756 370.506 439.456 358.606 429.356 348.606L374.456 293.506zM410.256 398.806C410.156 398.806 410.156 398.906 410.256 398.806 406.356 403.006 402.356 406.806 398.056 411.006 391.556 417.206 384.956 423.706 378.756 431.006 368.656 441.806 356.756 446.906 341.156 446.906 339.656 446.906 338.056 446.906 336.556 446.806 306.856 444.906 279.256 433.306 258.556 423.406 201.956 396.006 152.256 357.106 110.956 307.806 76.856 266.706 54.056 228.706 38.956 187.906 29.656 163.006 26.256 143.606 27.756 125.306 28.756 113.606 33.256 103.906 41.556 95.606L75.656 61.506C80.556 56.906 85.756 54.406 90.856 54.406 97.156 54.406 102.256 58.206 105.456 61.406 105.556 61.506 105.656 61.606 105.756 61.706 111.856 67.406 117.656 73.306 123.756 79.606 126.856 82.806 130.056 86.006 133.256 89.306L160.556 116.606C171.156 127.206 171.156 137.006 160.556 147.606 157.656 150.506 154.856 153.406 151.956 156.206 143.556 164.806 135.556 172.806 126.856 180.606 126.656 180.806 126.456 180.906 126.356 181.106 117.756 189.706 119.356 198.106 121.156 203.806 121.256 204.106 121.356 204.406 121.456 204.706 128.556 221.906 138.556 238.106 153.756 257.406L153.856 257.506C181.456 291.506 210.556 318.006 242.656 338.306 246.756 340.906 250.956 343.006 254.956 345.006 258.556 346.806 261.956 348.506 264.856 350.306 265.256 350.506 265.656 350.806 266.056 351.006 269.456 352.706 272.656 353.506 275.956 353.506 284.256 353.506 289.456 348.306 291.156 346.606L325.356 312.406C328.756 309.006 334.156 304.906 340.456 304.906 346.656 304.906 351.756 308.806 354.856 312.206L355.056 312.406 410.156 367.506C420.456 377.706 420.456 388.206 410.256 398.806zM256.056 112.706C282.256 117.106 306.056 129.506 325.056 148.506 344.056 167.506 356.356 191.306 360.856 217.506 361.956 224.106 367.656 228.706 374.156 228.706 374.956 228.706 375.656 228.606 376.456 228.506 383.856 227.306 388.756 220.306 387.556 212.906 382.156 181.206 367.156 152.306 344.256 129.406 321.356 106.506 292.456 91.506 260.756 86.106 253.356 84.906 246.456 89.806 245.156 97.106 243.856 104.406 248.656 111.506 256.056 112.706zM473.256 209.006C464.356 156.806 439.756 109.306 401.956 71.506 364.156 33.706 316.656 9.106 264.456.206 257.156-1.094 250.256 3.906 248.956 11.206 247.756 18.606 252.656 25.506 260.056 26.806 306.656 34.706 349.156 56.806 382.956 90.506 416.756 124.306 438.756 166.806 446.656 213.406 447.756 220.006 453.456 224.606 459.956 224.606 460.756 224.606 461.456 224.506 462.256 224.406 469.556 223.306 474.556 216.306 473.256 209.006z"/>
  </g>
</svg>
