<svg xmlns="http://www.w3.org/2000/svg" width="210" height="244" viewBox="0 0 210 244">
  <g fill="#000000" transform="matrix(-1 0 0 1 210 0)">
    <path d="M96.403 157.775C96.802 161.633 100.058 164.504 103.854 164.504 104.112 164.504 104.372 164.491 104.634 164.464 108.754 164.038 111.749 160.353 111.323 156.232L107.865 122.764C107.439 118.643 103.755 115.652 99.634 116.075 95.514 116.501 92.519 120.186 92.944 124.306L96.403 157.775zM143.338 164.464C143.6 164.491 143.86 164.504 144.118 164.504 147.913 164.504 151.17 161.632 151.569 157.775L155.027 124.307C155.453 120.186 152.458 116.501 148.338 116.076 144.217 115.654 140.532 118.646 140.106 122.765L136.648 156.233C136.223 160.354 139.218 164.039 143.338 164.464zM85.266 197.064C72.465 197.064 62.051 207.478 62.051 220.279 62.051 233.083 72.465 243.5 85.266 243.5 98.067 243.5 108.482 233.083 108.482 220.279 108.481 207.479 98.067 197.064 85.266 197.064zM85.266 228.5C80.736 228.5 77.051 224.812 77.051 220.279 77.051 215.749 80.736 212.064 85.266 212.064 89.796 212.064 93.482 215.749 93.482 220.279 93.481 224.812 89.796 228.5 85.266 228.5zM162.707 197.064C149.906 197.064 139.491 207.478 139.491 220.279 139.491 233.083 149.906 243.5 162.707 243.5 175.509 243.5 185.925 233.083 185.925 220.279 185.925 207.479 175.509 197.064 162.707 197.064zM162.707 228.5C158.177 228.5 154.491 224.812 154.491 220.279 154.491 215.749 158.177 212.064 162.707 212.064 167.238 212.064 170.925 215.749 170.925 220.279 170.925 224.812 167.238 228.5 162.707 228.5z"/>
    <path d="M207.569,91.057 C206.149,89.22 203.958,88.144 201.636,88.144 L52.141,88.144 L45.864,64.003 C45.004,60.698 42.02,58.391 38.605,58.391 L7.865,58.391 C3.723,58.391 0.365,61.749 0.365,65.891 C0.365,70.033 3.723,73.391 7.865,73.391 L32.806,73.391 L39.027,97.313 C39.061,97.463 39.1,97.612 39.143,97.759 L62.293,186.781 C63.153,190.086 66.137,192.393 69.552,192.393 L178.426,192.393 C181.841,192.393 184.825,190.086 185.685,186.781 L208.896,97.531 C209.478,95.285 208.989,92.894 207.569,91.057 Z M172.626,177.395 L75.35,177.395 L56.041,103.145 L191.935,103.145 L172.626,177.395 Z"/>
    <path d="M118.674,74.826 C120.138,76.29 122.058,77.023 123.977,77.023 C125.897,77.023 127.816,76.291 129.28,74.826 L153.56,50.546 C156.489,47.617 156.489,42.868 153.56,39.94 C150.631,37.012 145.882,37.012 142.954,39.94 L131.486,51.408 L131.488,7.501 C131.488,3.359 128.131,-7.10542736e-15 123.989,-7.10542736e-15 L123.988,-7.10542736e-15 C119.846,-7.10542736e-15 116.488,3.358 116.488,7.499 L116.486,51.424 L105.018,39.956 C102.089,37.027 97.34,37.027 94.412,39.956 C91.483,42.885 91.483,47.634 94.412,50.562 L118.674,74.826 Z"/>
  </g>
</svg>
