<svg xmlns="http://www.w3.org/2000/svg" width="447" height="434" viewBox="0 0 447 434">
  <g fill="#000000" transform="translate(0 -1)">
    <path d="M421.033,121.755 L111.133,92.855 C109.433,92.655 107.833,92.655 106.233,92.755 L93.833,32.755 C93.533,31.555 93.233,30.355 92.733,29.355 C90.833,24.555 86.833,20.655 81.533,19.055 L22.433,1.655 C13.333,-1.045 3.733,4.155 1.033,13.355 C-1.667,22.455 3.533,32.055 12.733,34.755 L62.033,49.255 L121.333,335.055 C122.433,343.455 129.633,349.955 138.433,349.955 L393.433,349.855 C402.933,349.855 410.633,342.155 410.633,332.655 C410.633,323.155 402.933,315.455 393.433,315.455 L152.533,315.555 L144.333,276.055 L397.933,276.055 C411.233,276.055 422.733,267.255 425.133,255.155 L445.633,151.855 C448.333,137.055 437.133,123.255 421.033,121.755 Z"/>
    <circle cx="187.433" cy="399.955" r="34.4"/>
    <circle cx="351.833" cy="399.955" r="34.4"/>
  </g>
</svg>
