<svg xmlns="http://www.w3.org/2000/svg" width="127" height="118" viewBox="0 0 127 118">
  <path fill="#D8D8D8" fill-rule="evenodd" d="M97,71 L68.004743,71 C60.270137,71 54,64.7336865 54,57 C54,49.2680135 60.2755657,43 68.004743,43 L108.995257,43 C109.332321,43 109.666604,43.0119004 109.997708,43.035304 C110.328754,43.0119005 110.662984,43 111,43 C118.731986,43 125,49.2654581 125,56.9969796 L125,104.00302 C125,111.733339 118.733687,118 111,118 C103.268014,118 97,111.734542 97,104.00302 L97,71 Z M28,85 L70.9993944,85 C78.7317154,85 85,91.2663135 85,99 C85,106.731986 78.737847,113 70.9993944,113 L15.0006056,113 C14.8331447,113 14.6663704,112.997061 14.5003317,112.991231 C14.3342751,112.997061 14.1674816,113 14,113 C6.2680135,113 3.55271368e-15,106.723141 3.55271368e-15,99.0022564 L-3.55271368e-15,13.9977436 C-3.55271368e-15,6.26700329 6.26631345,8.43623184e-15 14,7.96268012e-15 C15.3898683,7.87757523e-15 16.7324325,0.202818455 17.9997895,0.580384909 C19.2676391,0.202779736 20.6106309,0 22.0007433,0 L112.999257,0 C120.731654,0 127,6.26631345 127,14 C127,21.7319865 120.727888,28 112.999257,28 L28,28 L28,85 Z"/>
</svg>
