<svg xmlns="http://www.w3.org/2000/svg" width="158" height="271" viewBox="0 0 158 271">
  <path fill="#FF1414" d="M80.485,0.901 C41.892,0.901 10.607,32.187 10.607,70.779 C10.607,109.372 41.892,140.66 80.485,140.66 C119.078,140.66 150.363,109.372 150.363,70.779 C150.363,32.187 119.078,0.901 80.485,0.901 Z M80.485,99.667 C64.532,99.667 51.599,86.733 51.599,70.78 C51.599,54.827 64.532,41.894 80.485,41.894 C96.438,41.894 109.371,54.827 109.371,70.78 C109.371,86.733 96.438,99.667 80.485,99.667 Z M105.155,196.262 L147.382,238.113 C154.808,245.527 154.817,257.557 147.403,264.983 C139.989,272.408 127.961,272.42 120.533,265.004 L79.537,225.082 L42.302,264.747 C38.574,268.614 33.601,270.559 28.623,270.559 C23.875,270.559 19.123,268.792 15.436,265.237 C7.882,257.953 7.663,245.925 14.947,238.371 L55.028,196.483 C26.269,190.918 8.813,177.325 7.914,176.604 C-0.272,170.039 -1.587,158.081 4.978,149.894 C11.542,141.708 23.499,140.393 31.687,146.957 C31.86,147.097 50.118,160.813 79.536,160.833 C108.955,160.813 126.835,147.097 127.008,146.957 C135.196,140.393 147.153,141.708 153.717,149.894 C160.282,158.081 158.967,170.039 150.781,176.604 C149.894,177.315 133.13,190.563 105.155,196.262 Z"/>
</svg>
