<?xml version="1.0" standalone="no"?>
<!DOCTYPE svg PUBLIC "-//W3C//DTD SVG 20010904//EN"
 "http://www.w3.org/TR/2001/REC-SVG-20010904/DTD/svg10.dtd">
<svg version="1.0" xmlns="http://www.w3.org/2000/svg"
 width="1208.000000pt" height="1208.000000pt" viewBox="0 0 1208.000000 1208.000000"
 preserveAspectRatio="xMidYMid meet">
<metadata>
Created by potrace 1.11, written by Peter Selinger 2001-2013
</metadata>
<g transform="translate(0.000000,1208.000000) scale(0.100000,-0.100000)"
fill="#000000" stroke="none">
<path d="M11374 9386 c-3 -8 7 -47 21 -88 36 -98 68 -209 62 -214 -3 -3 -40
12 -83 34 -215 108 -300 132 -499 139 -136 5 -156 3 -215 -17 -80 -26 -213
-97 -298 -157 -52 -37 -75 -46 -130 -54 -102 -14 -186 -38 -199 -56 -19 -25 1
-50 47 -58 67 -11 45 -25 -39 -25 -103 0 -133 -11 -129 -47 2 -22 11 -30 43
-42 22 -8 41 -16 43 -17 4 -3 -141 -176 -188 -224 -19 -19 -35 -40 -36 -47 -1
-6 -31 -58 -67 -115 -73 -118 -122 -211 -148 -283 l-17 -50 -101 -23 c-67 -16
-101 -28 -101 -37 0 -24 19 -27 95 -14 42 6 77 10 80 7 2 -2 1 -17 -3 -33 -8
-27 -15 -31 -105 -54 -126 -32 -132 -52 -12 -44 52 4 85 2 85 -4 0 -5 -49 -25
-108 -45 -59 -20 -158 -59 -220 -87 -84 -39 -123 -51 -159 -51 -132 0 -396
-63 -526 -124 -206 -98 -376 -253 -452 -411 -30 -63 -40 -93 -60 -187 l-5 -27
-45 19 c-61 26 -136 35 -165 20 -61 -33 -97 -110 -80 -170 14 -48 14 -48 -20
-55 -69 -15 -95 -64 -70 -129 8 -23 3 -32 -68 -103 -43 -43 -107 -121 -141
-173 -35 -52 -64 -96 -66 -98 -1 -1 -68 38 -148 87 -430 266 -1171 569 -1745
716 -156 40 -147 38 -1277 266 -2225 450 -2300 465 -2589 484 -679 46 -963 93
-1204 196 -55 24 -113 43 -134 43 -101 1 -159 -129 -109 -240 26 -57 154 -181
255 -249 115 -76 285 -155 601 -278 591 -230 809 -285 1422 -359 145 -17 241
-22 519 -23 372 -2 380 -3 508 -67 63 -32 199 -72 356 -107 137 -29 193 -38
394 -61 99 -11 187 -26 197 -32 115 -84 229 -172 226 -174 -3 -3 -171 21 -215
31 -81 19 60 -64 248 -145 41 -17 116 -56 165 -86 101 -60 256 -115 403 -144
110 -22 185 -49 241 -85 21 -14 73 -40 117 -58 74 -31 79 -35 86 -70 11 -54
53 -131 93 -171 58 -59 53 -62 -102 -70 -384 -19 -689 -54 -921 -107 -243 -56
-307 -89 -168 -89 42 0 76 -3 76 -8 0 -4 -24 -16 -53 -26 -221 -77 -685 -292
-807 -374 -64 -43 -122 -135 -161 -254 -38 -120 -27 -180 44 -230 29 -21 30
-21 79 -3 97 35 227 6 392 -88 39 -22 81 -51 93 -64 l23 -24 -61 -72 c-33 -39
-55 -73 -49 -75 6 -2 32 10 58 26 105 66 265 106 492 122 91 6 203 18 250 26
172 28 293 17 475 -45 50 -17 107 -33 129 -36 35 -6 38 -8 32 -33 -4 -15 -9
-83 -13 -152 -5 -123 -3 -141 33 -258 5 -18 -7 -36 -74 -105 -131 -135 -144
-179 -123 -429 l12 -143 -40 -110 c-45 -124 -66 -199 -77 -265 -3 -25 -13 -58
-21 -74 -11 -21 -12 -31 -4 -39 14 -14 72 16 166 85 56 41 73 62 136 169 39
68 85 152 101 188 45 97 75 251 97 493 20 209 23 224 70 365 27 82 58 169 70
195 19 45 21 47 51 38 17 -5 46 -18 64 -29 31 -20 34 -25 39 -88 3 -38 13
-147 23 -244 17 -167 17 -179 0 -222 -11 -29 -34 -59 -65 -85 -82 -70 -189
-308 -226 -506 -11 -60 -13 -90 -6 -109 6 -15 13 -27 16 -27 2 0 48 23 102 52
225 120 452 407 500 631 18 83 16 99 -22 237 -12 44 -13 66 -4 108 6 30 16 52
23 52 17 0 198 -75 481 -200 127 -56 268 -117 315 -135 235 -92 576 -140 825
-115 168 16 229 31 485 114 492 161 806 231 1160 257 246 18 423 2 683 -61 87
-22 155 -31 260 -36 166 -7 183 -13 310 -105 120 -85 169 -130 234 -212 49
-61 65 -74 137 -106 81 -38 146 -94 146 -127 0 -11 6 -14 23 -9 33 11 67 34
67 48 0 6 5 54 10 106 31 290 -84 533 -359 761 -89 73 -92 78 -157 205 -164
320 -255 450 -389 553 -33 25 -91 75 -130 110 -122 112 -342 246 -537 327 -38
15 -68 33 -68 38 0 15 103 206 188 347 190 317 436 617 774 945 235 229 307
284 646 490 182 112 380 250 447 313 51 47 118 177 136 262 13 60 9 157 -15
375 -22 191 -38 272 -94 470 -77 267 -113 332 -292 530 -63 70 -119 134 -123
141 -13 22 -107 94 -123 94 -8 0 -17 -6 -20 -14z m232 -299 c95 -142 178 -322
197 -427 23 -123 36 -220 46 -340 5 -58 13 -116 16 -130 6 -19 1 -15 -20 15
-82 119 -189 178 -268 146 -14 -5 -6 -12 37 -30 135 -56 206 -191 221 -421 l6
-95 -48 -85 c-35 -61 -75 -112 -143 -180 -164 -164 -329 -312 -505 -450 -223
-176 -364 -299 -565 -495 -91 -88 -196 -187 -233 -220 -64 -55 -70 -58 -80
-40 -13 25 -119 136 -124 131 -2 -2 12 -36 32 -77 44 -91 47 -145 10 -179
l-25 -24 -47 48 c-26 26 -49 42 -51 36 -2 -6 5 -33 17 -60 26 -60 26 -88 2
-119 l-19 -24 -11 21 c-8 14 -21 22 -38 22 -24 0 -25 -1 -10 -12 9 -7 19 -27
23 -43 5 -26 -4 -43 -72 -129 l-77 -98 -24 31 c-32 40 -91 71 -154 78 -58 7
-69 -12 -13 -23 63 -12 124 -80 124 -139 0 -27 -67 -107 -123 -147 l-28 -20
-40 46 c-37 42 -118 106 -134 106 -3 0 12 -21 33 -47 40 -48 63 -88 76 -131 6
-19 2 -25 -29 -38 -34 -14 -44 -13 -148 10 -62 14 -161 32 -222 40 -124 18
-451 46 -535 46 l-55 1 55 30 c63 33 87 63 70 84 -6 7 -39 23 -73 35 -148 54
-341 145 -444 209 l-45 28 46 5 c51 6 135 45 150 69 5 9 6 24 3 33 -3 8 -77
63 -164 121 -87 58 -169 114 -183 126 l-25 20 24 -6 c14 -4 26 -2 31 4 5 8 35
9 111 3 118 -10 149 -4 208 38 64 46 58 70 -29 116 -39 20 -69 38 -67 40 1 2
20 -1 42 -6 61 -14 171 -12 210 4 40 17 85 59 85 79 0 7 -22 38 -49 68 l-49
55 35 19 c46 25 56 53 38 104 l-14 40 45 21 c63 31 75 61 50 121 -5 12 0 18
19 23 41 10 65 41 65 84 0 33 6 43 39 70 38 31 43 32 138 33 54 0 121 5 148
10 28 6 118 14 200 18 160 9 198 19 258 74 34 32 34 40 1 66 -20 15 -22 21
-10 21 22 0 20 15 -5 32 -21 14 -21 15 34 51 60 40 88 72 81 91 -2 6 -24 25
-49 41 -24 17 -45 35 -45 41 0 6 7 34 16 63 l15 53 57 -7 c31 -4 101 -15 155
-26 113 -22 151 -23 196 -8 43 15 40 42 -6 62 -60 26 -119 37 -246 44 -65 3
-119 9 -121 12 -2 3 3 21 11 40 l14 34 112 -6 c62 -4 168 -18 237 -32 152 -30
167 -31 175 -5 9 28 -1 39 -59 65 -90 39 -153 49 -298 48 -76 -1 -138 0 -138
3 0 2 24 51 52 109 52 105 53 105 89 105 63 0 238 -20 403 -46 159 -25 186
-23 173 9 -7 19 -100 54 -196 74 -56 11 -116 14 -233 11 -87 -2 -158 -3 -158
-1 0 1 14 25 31 53 l31 50 66 0 c84 0 209 -22 340 -59 56 -15 104 -26 107 -23
12 12 3 23 -37 43 -91 47 -157 61 -310 66 l-147 5 22 31 22 30 140 -7 c77 -3
194 -13 260 -21 170 -21 205 -20 205 4 0 50 -339 95 -517 68 l-53 -8 51 68
c90 119 85 116 159 108 85 -9 242 -46 354 -84 105 -36 126 -38 126 -12 0 25
-178 115 -320 161 -102 34 -102 34 -80 52 24 19 115 25 325 19 189 -5 406 -50
562 -117 45 -20 87 -33 93 -29 23 14 6 33 -67 78 -175 105 -373 170 -592 197
-46 5 -86 12 -89 14 -6 7 143 80 208 102 45 15 83 19 205 18 129 0 164 -4 248
-27 115 -31 188 -68 278 -141 l67 -54 17 45 c14 37 17 65 12 147 l-5 100 19
-24 c11 -14 49 -69 85 -123z m-11099 -1259 c22 -24 53 -65 68 -91 47 -83 206
-207 365 -287 98 -49 203 -110 197 -116 -5 -5 -257 70 -287 86 -121 64 -327
215 -384 282 -98 114 -60 231 41 126z m233 -93 c78 -20 159 -58 312 -143 70
-39 173 -91 230 -115 105 -45 316 -117 342 -117 9 0 25 -10 36 -22 l22 -23
-48 -42 -47 -42 -41 16 c-106 41 -263 117 -381 183 -118 65 -495 307 -495 316
0 6 9 5 70 -11z m491 -54 c166 -79 319 -144 430 -183 l91 -31 -38 -19 c-20
-10 -44 -24 -53 -32 -14 -13 -41 -5 -218 59 -267 97 -399 159 -408 192 -8 35
2 46 71 73 1 0 57 -27 125 -59z m230 -17 c131 -32 527 -119 866 -190 155 -32
280 -60 278 -63 -2 -2 -44 4 -92 13 -48 9 -210 34 -360 56 -149 22 -334 53
-410 69 -166 35 -433 126 -433 146 0 6 12 3 151 -31z m1214 -264 c25 -11 -1
-11 -35 0 -20 6 -21 8 -5 8 11 0 29 -3 40 -8z m2812 -481 c261 -57 1005 -367
1368 -571 100 -57 249 -162 315 -222 19 -18 76 -63 125 -101 203 -154 376
-326 548 -542 74 -93 159 -191 190 -220 63 -57 158 -116 169 -105 5 5 2 31 -5
59 l-13 50 46 -19 c25 -10 59 -30 75 -42 29 -23 29 -25 12 -44 -21 -23 -19
-25 51 -42 58 -13 58 -21 -2 -40 l-40 -13 24 -19 c20 -16 21 -22 12 -43 -7
-14 -8 -25 -4 -25 5 0 17 -7 28 -15 19 -14 18 -15 -6 -35 l-25 -20 28 0 c15 0
30 -7 33 -15 8 -20 78 -20 164 -1 36 8 92 21 125 28 35 8 59 18 58 25 -2 7 6
14 16 18 16 5 17 9 7 30 -6 14 -15 25 -21 25 -5 0 4 11 20 25 l30 24 -33 7
c-39 8 -47 18 -27 34 21 17 19 27 -7 35 -22 6 -21 7 12 21 19 9 40 21 45 29 6
7 80 50 165 95 l155 81 109 -20 c114 -21 130 -27 106 -41 -33 -19 -102 -72
-98 -76 3 -2 41 10 87 26 93 34 107 36 115 15 4 -10 -7 -21 -35 -36 -61 -31
-41 -33 48 -6 87 28 240 46 229 28 -4 -6 -12 -11 -17 -11 -11 0 -140 -49 -148
-56 -14 -12 12 -11 59 1 72 19 222 30 244 18 13 -7 -2 -16 -69 -42 -47 -19
-88 -38 -92 -44 -4 -6 0 -8 8 -5 8 3 58 13 113 23 88 16 108 16 184 5 91 -15
91 -16 -16 -46 -35 -9 -66 -22 -69 -27 -4 -7 1 -8 13 -3 10 4 66 10 124 13
100 5 108 4 183 -26 43 -17 85 -31 95 -32 9 0 -23 -9 -72 -19 -48 -10 -90 -21
-93 -23 -2 -3 35 -8 83 -12 160 -14 316 -93 437 -225 116 -125 260 -379 325
-574 25 -74 27 -86 13 -86 -20 0 -87 21 -174 54 l-69 26 -48 -35 c-63 -46
-108 -64 -200 -81 -110 -20 -169 -17 -370 16 -149 24 -200 28 -279 23 -231
-14 -556 44 -750 133 -81 37 -241 140 -241 155 0 5 11 9 25 9 15 0 25 6 25 14
0 9 -19 16 -57 21 -53 6 -62 11 -110 60 -55 56 -143 173 -185 243 -14 24 -28
40 -31 35 -3 -5 -11 -56 -17 -114 -20 -183 14 -335 93 -416 l31 -33 -80 0
c-43 0 -129 3 -191 7 l-112 6 19 28 c24 33 25 47 3 71 -32 36 -185 10 -236
-41 l-29 -28 -136 24 c-144 25 -335 67 -375 82 -22 9 -42 46 -63 119 -5 18
-46 15 -111 -9 -64 -25 -50 -32 -114 60 -31 43 -31 43 -77 37 -25 -3 -69 -17
-99 -30 l-53 -25 -82 30 c-46 16 -101 38 -123 48 -22 11 -60 25 -84 31 l-43
11 7 66 c8 73 34 176 63 243 l19 45 7 -42 c3 -24 9 -61 12 -83 3 -22 9 -40 14
-40 10 0 20 26 20 54 0 12 7 46 15 74 19 62 40 71 30 12 -13 -77 -4 -190 14
-190 5 0 11 27 14 60 4 33 13 76 22 96 17 42 39 37 30 -7 -8 -35 15 -200 27
-193 4 3 8 26 8 52 1 77 23 146 47 150 20 3 21 0 16 -50 -5 -54 11 -138 27
-138 5 0 9 24 9 53 0 65 25 131 47 123 9 -3 22 -6 30 -6 10 0 14 -13 14 -47 0
-27 3 -59 7 -72 6 -23 7 -23 14 -5 4 10 8 41 8 67 l1 48 48 -3 47 -3 6 -70
c10 -112 23 -124 29 -25 l5 85 46 3 c50 3 59 -7 59 -70 0 -16 5 -28 10 -28 6
0 10 11 10 24 0 13 3 38 6 55 6 29 9 31 54 31 45 0 48 -1 55 -32 l8 -33 10 36
c9 34 13 36 79 52 83 19 162 54 206 91 34 29 102 125 102 144 0 24 -65 142
-81 147 -9 3 -24 25 -33 49 -30 79 -126 154 -371 291 -93 52 -167 102 -220
149 -142 126 -187 161 -385 296 -107 73 -215 149 -240 170 -94 76 -383 232
-840 453 -52 25 -149 64 -215 87 -205 71 -210 73 -213 98 -4 23 13 52 29 52 5
0 53 -9 106 -21z m-542 -1694 c159 -19 374 -63 406 -84 32 -20 238 -195 234
-199 -1 -1 -51 2 -111 8 -142 13 -822 13 -995 0 -143 -12 -346 -42 -443 -66
-32 -8 -61 -13 -63 -10 -12 12 24 74 72 125 117 125 289 206 510 240 71 11
223 6 390 -14z m820 -892 c-23 -54 -32 -60 -31 -18 1 32 17 54 39 55 4 0 0
-17 -8 -37z m-76 -42 c10 -18 -1 -198 -15 -248 -7 -25 -12 -27 -34 -13 -12 7
-15 30 -15 102 1 141 32 219 64 159z m5599 -340 c91 -113 162 -283 162 -386
l0 -40 -24 56 c-12 31 -32 69 -44 85 -42 59 -184 181 -364 314 -48 35 -86 65
-84 67 1 2 29 -2 61 -8 43 -8 65 -8 83 1 26 11 26 12 6 110 -7 34 -4 32 72
-49 43 -46 103 -114 132 -150z m-454 60 c12 -11 80 -56 151 -101 311 -196 413
-306 432 -467 l5 -41 -68 35 c-86 44 -101 57 -184 168 -81 108 -200 223 -273
265 -46 26 -55 36 -72 82 -10 29 -20 59 -23 66 -6 18 9 15 32 -7z m-4554 -86
c20 -24 -14 -195 -38 -195 -9 0 -31 180 -25 198 7 17 48 15 63 -3z m-100 -47
c0 -43 -26 -284 -36 -326 -3 -17 -11 -22 -26 -20 -41 6 -44 30 -14 128 15 50
30 123 32 163 7 88 9 97 29 97 11 0 15 -11 15 -42z m-585 -65 c-41 -109 -47
-140 -42 -229 5 -95 0 -114 -35 -114 -71 0 -35 243 50 343 8 9 19 17 25 17 5
0 6 -8 2 -17z m68 -15 c14 -11 15 -27 10 -111 -6 -98 -17 -127 -48 -127 -29 0
-30 108 -4 213 11 40 16 44 42 25z"/>
<path d="M11677 7978 c40 -61 53 -69 53 -35 0 27 -52 87 -75 87 -9 0 -1 -19
22 -52z"/>
<path d="M11330 7962 c0 -4 24 -16 53 -26 71 -25 139 -95 157 -162 17 -63 36
-94 59 -94 22 0 31 19 31 66 0 79 -88 181 -181 208 -56 17 -119 21 -119 8z"/>
<path d="M10294 7701 c3 -5 43 -21 88 -35 62 -20 89 -25 107 -18 l25 9 -26 17
c-39 25 -207 49 -194 27z"/>
<path d="M10140 7572 c0 -12 47 -21 140 -27 70 -5 73 -4 45 9 -36 16 -185 31
-185 18z"/>
<path d="M11250 7563 c0 -4 12 -20 27 -35 15 -16 41 -54 58 -86 35 -67 59 -74
63 -20 2 29 -3 43 -29 73 -38 42 -119 89 -119 68z"/>
<path d="M11040 7555 c0 -3 20 -23 44 -46 31 -28 52 -59 68 -102 18 -45 29
-63 45 -65 67 -10 1 145 -81 190 -23 12 -76 28 -76 23z"/>
<path d="M9941 7460 c-25 -5 -49 -11 -54 -13 -5 -1 42 -3 105 -3 67 0 153 -7
211 -18 72 -14 101 -16 109 -8 9 9 1 16 -28 29 -45 20 -268 28 -343 13z"/>
<path d="M9815 7370 c-31 -6 -18 -8 55 -9 52 -1 149 -10 215 -20 66 -10 124
-16 128 -14 16 9 -7 22 -68 37 -62 17 -253 20 -330 6z"/>
<path d="M10751 7190 c18 -22 44 -75 58 -117 17 -51 31 -78 41 -78 22 0 17 82
-8 132 -23 44 -84 103 -108 103 -10 0 -6 -12 17 -40z"/>
<path d="M10480 6981 c57 -31 82 -66 101 -139 18 -72 36 -86 52 -39 13 41 0
93 -35 133 -38 44 -77 64 -120 64 l-33 -1 35 -18z"/>
<path d="M9120 6855 c0 -5 7 -17 17 -27 19 -21 16 -22 -62 -3 -94 23 -107 17
-30 -13 39 -16 100 -47 136 -70 36 -23 74 -42 83 -42 20 0 21 23 1 40 -11 9
-12 16 -3 30 16 26 3 49 -39 66 -45 19 -103 30 -103 19z"/>
<path d="M9024 6732 c9 -16 98 -72 113 -72 28 0 11 29 -29 48 -58 27 -92 37
-84 24z"/>
<path d="M8780 6661 c85 -22 148 -47 242 -95 123 -64 158 -76 158 -57 0 17
-90 89 -144 114 -89 42 -156 58 -266 63 l-105 4 115 -29z"/>
<path d="M10020 6612 c0 -5 9 -17 19 -26 21 -19 35 -8 25 18 -6 16 -44 23 -44
8z"/>
<path d="M8595 6561 c28 -10 95 -37 150 -61 116 -50 236 -92 243 -85 27 27
-133 106 -283 140 -131 30 -185 32 -110 6z"/>
<path d="M8665 6345 c63 -41 173 -95 192 -95 16 1 16 2 -2 17 -23 18 -168 87
-205 97 -18 5 -14 0 15 -19z"/>
<path d="M8685 4835 c-29 -14 -29 -14 29 -12 37 1 61 7 64 15 5 17 -54 15 -93
-3z"/>
<path d="M8745 4730 c-8 -13 20 -24 40 -16 8 3 15 10 15 16 0 13 -47 13 -55 0z"/>
<path d="M10218 4715 c-45 -25 -49 -87 -7 -100 14 -5 19 -15 19 -44 0 -50 30
-87 94 -117 75 -35 146 -33 188 5 44 39 44 94 1 154 -60 84 -226 141 -295 102z
m157 -69 c0 -36 -26 -56 -49 -37 -16 14 -22 52 -9 65 4 4 19 6 33 4 20 -2 25
-8 25 -32z"/>
</g>
</svg>
